<svg width="21" height="20" viewBox="0 0 21 20" fill="none" xmlns="http://www.w3.org/2000/svg">
<path d="M20.4172 14.8503C20.3589 14.63 20.255 14.4245 20.1123 14.2468C19.9696 14.0692 19.7913 13.9235 19.5888 13.8191L15.3366 11.6156C14.9934 11.4337 14.5964 11.3812 14.2178 11.4676C13.8391 11.5541 13.5042 11.7737 13.2741 12.0866L12.5866 13.0284C12.5512 13.0774 12.4993 13.1117 12.4404 13.125C12.3815 13.1383 12.3198 13.1296 12.2669 13.1006C11.2558 12.5253 10.3302 11.8114 9.51688 10.9797C8.6852 10.1663 7.97131 9.24071 7.39594 8.22968C7.36692 8.17676 7.35824 8.11505 7.37154 8.05618C7.38483 7.9973 7.41918 7.94532 7.46813 7.91L8.40656 7.2225C8.71937 6.99234 8.93904 6.65741 9.02549 6.2788C9.11194 5.90019 9.05942 5.50311 8.8775 5.16L6.68781 0.911245C6.58266 0.708456 6.43595 0.530101 6.25725 0.387803C6.07855 0.245505 5.87188 0.142458 5.65069 0.0853773C5.4295 0.028297 5.19877 0.0184643 4.97353 0.0565201C4.74829 0.0945759 4.5336 0.179666 4.34344 0.306245L1.6725 2.09375C1.29746 2.34347 0.994619 2.68735 0.794323 3.09096C0.594027 3.49457 0.503307 3.94373 0.531251 4.39343C0.566601 5.15378 0.668977 5.90952 0.837188 6.65187C1.5625 9.45 3.31219 12.3272 5.7425 14.7609C8.17281 17.1947 11.0534 18.9375 13.8516 19.6559C14.5939 19.8241 15.3497 19.9265 16.11 19.9619H16.2819C16.7014 19.961 17.1143 19.8574 17.4846 19.6603C17.8548 19.4632 18.1713 19.1784 18.4063 18.8309L20.1869 16.16C20.3154 15.9703 20.4024 15.7555 20.442 15.5298C20.4817 15.3041 20.4733 15.0725 20.4172 14.8503ZM19.0422 15.3934L17.2719 18.0678C17.1544 18.2413 16.9936 18.381 16.8055 18.4733C16.6174 18.5655 16.4085 18.607 16.1994 18.5937C15.5251 18.5626 14.8546 18.474 14.1953 18.3291C11.6309 17.6622 8.97719 16.05 6.71875 13.7812C4.46031 11.5125 2.84125 8.86906 2.17438 6.30468C2.02818 5.6455 1.93848 4.97505 1.90625 4.30062C1.89252 4.09196 1.93388 3.88336 2.02618 3.69572C2.11849 3.50809 2.25851 3.34802 2.43219 3.23156L5.10313 1.45093C5.14379 1.42371 5.19169 1.40934 5.24063 1.40968H5.30594C5.33979 1.41851 5.37138 1.4344 5.39864 1.45633C5.42589 1.47825 5.44819 1.5057 5.46406 1.53687L7.66406 5.78906C7.69141 5.84179 7.69916 5.90251 7.68594 5.96041C7.67272 6.01832 7.63939 6.06966 7.59188 6.10531L6.65344 6.79281C6.33522 7.02956 6.11474 7.37467 6.03366 7.76292C5.95259 8.15118 6.01655 8.55569 6.21344 8.89999C6.84968 10.0121 7.63626 11.0312 8.55094 11.9284C9.4481 12.8432 10.4672 13.6298 11.5794 14.2659C11.9237 14.4628 12.3282 14.5268 12.7164 14.4457C13.1047 14.3646 13.4498 14.1442 13.6866 13.8259L14.3741 12.8841C14.4097 12.8365 14.4611 12.8032 14.519 12.79C14.5769 12.7768 14.6376 12.7845 14.6903 12.8119L18.9425 15.0119C18.9736 15.0282 19.001 15.0508 19.0228 15.0783C19.0446 15.1059 19.0604 15.1377 19.0692 15.1717C19.0779 15.2057 19.0794 15.2412 19.0736 15.2758C19.0678 15.3105 19.0547 15.3435 19.0353 15.3728L19.0422 15.3934Z" fill="#015989"/>
</svg>
