<svg width="17" height="23" viewBox="0 0 17 23" fill="none" xmlns="http://www.w3.org/2000/svg">
<path d="M8.66691 0.601697L8.66678 0.601695C8.55586 0.599435 8.44417 0.599435 8.3332 0.601695L8.33308 0.601697C5.75268 0.653729 3.43572 2.01297 2.12892 4.24208C0.792246 6.52219 0.756245 9.25421 2.03078 11.5602L7.79918 21.9966L7.80076 21.9994L7.80138 22.0005L7.80168 22.001L7.80191 22.0014L7.80205 22.0017C7.94759 22.2517 8.204 22.4 8.50009 22.4C8.79609 22.4 9.05251 22.2517 9.19802 22.0017L9.19841 22.001L9.19867 22.0006L8.66691 0.601697ZM8.66691 0.601697C11.2474 0.653729 13.5643 2.01297 14.8711 4.24207L15.3887 3.93863L8.66691 0.601697ZM4.62787 7.18752C4.62787 9.30887 6.37095 11.0219 8.49999 11.0219C10.6291 11.0219 12.3721 9.30887 12.3721 7.18752C12.3721 5.06616 10.629 3.35314 8.49999 3.35314C6.37095 3.35314 4.62787 5.06616 4.62787 7.18752Z" stroke="#015989" stroke-width="1.2"/>
</svg>
